<svg width="21" height="20" viewBox="0 0 21 20" fill="none" xmlns="http://www.w3.org/2000/svg">
<path d="M18.5 18V12.14C18.5 9.26 17.88 7.06 14.52 7.06C12.9 7.06 11.82 7.94 11.38 8.78H11.34V7.32H8.15997V18H11.48V12.7C11.48 11.3 11.74 9.96 13.46 9.96C15.16 9.96 15.18 11.54 15.18 12.78V17.98H18.5V18Z" fill="white"/>
<path d="M2.76001 7.32001H6.08001V18H2.76001V7.32001Z" fill="white"/>
<path d="M4.42 2C3.36 2 2.5 2.86 2.5 3.92C2.5 4.98 3.36 5.86 4.42 5.86C5.48 5.86 6.34 4.98 6.34 3.92C6.34 2.86 5.48 2 4.42 2Z" fill="white"/>
</svg>
